<svg width="112" height="130" viewBox="0 0 112 130" fill="none" xmlns="http://www.w3.org/2000/svg">
<path d="M69.3114 55.4167C69.3023 55.6447 69.2581 55.8699 69.1803 56.0842C69.0345 56.0842 68.8014 56.0842 68.4954 56.0842L67.4974 56.1282L66.4993 56.1722H65.7708C65.0355 56.1933 64.3007 56.1168 63.5852 55.9448C63.0319 55.7799 62.5301 55.4742 62.1282 55.0573C61.6735 54.5751 61.2455 54.0682 60.846 53.5389C60.2777 52.8054 59.6512 51.9912 58.9591 51.0376L56.7736 48.0302C56.0086 46.974 55.3165 45.9617 54.588 44.9935C53.8595 44.0253 53.3349 43.1597 52.8177 42.3822C52.3004 41.6047 51.9289 41.0766 51.7249 40.7392C51.7405 40.4721 51.7996 40.2094 51.8998 39.9616C52.0001 39.7538 52.1357 39.5651 52.3004 39.4042C53.3271 39.2716 54.3361 39.0256 55.3092 38.6707C56.1896 38.3494 57.0135 37.8888 57.7498 37.3063C58.4212 36.7651 58.9722 36.0878 59.3671 35.3185C59.7759 34.5053 59.981 33.6038 59.9645 32.6925C59.9943 31.7353 59.8127 30.7832 59.4327 29.9052C59.1038 29.1828 58.6034 28.553 57.9756 28.0714C57.3467 27.5996 56.6311 27.258 55.8702 27.0665C55.0461 26.8578 54.1993 26.7542 53.3495 26.7584H52.4607L51.4845 26.8025C51.164 26.8025 50.8507 26.8391 50.5593 26.8685C50.2679 26.8978 50.0275 26.9272 49.8308 26.9565L49.7433 28.9223C49.7433 29.5164 49.6923 30.2059 49.6778 30.9981C49.6632 31.7903 49.6778 32.6119 49.6778 33.4701L49.5904 45.9397C49.5904 46.1451 49.5904 46.6341 49.5904 47.4068C49.5904 48.1403 49.5904 49.0058 49.5904 49.8787C49.5904 50.7516 49.6341 51.5584 49.6778 52.2919C49.6544 52.7283 49.7369 53.1638 49.9182 53.5609C50.3917 54.0377 51.4262 54.4044 53.0217 54.6758C53.0701 54.8953 53.0994 55.1187 53.1091 55.3433C53.1154 55.4484 53.1154 55.5537 53.1091 55.6587C53.1091 55.7761 53.0872 55.9081 53.0435 56.0548H51.8051C51.2441 56.0548 50.5811 56.0548 49.8089 56.0108C49.0367 55.9668 48.3519 55.9668 47.6234 55.9668C46.8948 55.9668 46.2392 55.9668 45.4961 56.0108C44.753 56.0548 44.1119 56.0548 43.5509 56.0548H42.2542C42.225 55.9081 42.2032 55.7761 42.1886 55.6587C42.1823 55.5537 42.1823 55.4484 42.1886 55.3433C42.1983 55.1187 42.2276 54.8953 42.276 54.6758C43.8423 54.4044 44.8477 54.0524 45.2921 53.6049C45.4779 53.2087 45.5677 52.7739 45.5544 52.3359C45.6199 51.6024 45.6636 50.8029 45.6928 49.9227C45.7219 49.0425 45.7365 48.221 45.7365 47.4508V45.9617L45.8676 33.4921V32.2011C45.8676 31.5923 45.8676 30.9688 45.8239 30.3233C45.7802 29.6778 45.7583 29.0983 45.7146 28.5629C45.7219 28.238 45.652 27.9161 45.5106 27.624C45.1845 27.3398 44.7983 27.1341 44.3814 27.0225C43.8642 26.8611 43.2231 26.7071 42.4581 26.5531C42.4087 26.3337 42.3795 26.1103 42.3707 25.8856C42.3645 25.783 42.3645 25.6801 42.3707 25.5775C42.3707 25.4528 42.3707 25.3208 42.4363 25.1741H43.0774C43.3542 25.1741 43.6602 25.1741 43.988 25.1301H44.5417C44.7513 25.1305 44.9607 25.1158 45.1682 25.086L47.5141 24.976L50.0857 24.8367L52.519 24.7266C53.2912 24.7266 53.976 24.6826 54.5151 24.6826C55.634 24.6845 56.7514 24.7654 57.8591 24.9247C58.9561 25.0777 60.0156 25.4333 60.9844 25.9736C61.9408 26.5204 62.7411 27.3061 63.3084 28.2548C63.9699 29.4516 64.2853 30.811 64.219 32.1791C64.2427 33.1742 64.0607 34.1635 63.6844 35.084C63.3082 36.0045 62.746 36.8363 62.0335 37.5264C60.4035 39.0449 58.3528 40.0274 56.1543 40.3431C56.3874 40.7245 56.759 41.2819 57.2617 42.0155C57.7643 42.749 58.3326 43.5485 58.9664 44.4214C59.6002 45.2943 60.2632 46.2111 60.9625 47.1647C61.6619 48.1183 62.3176 49.0131 62.9514 49.842C63.5852 50.6709 64.168 51.4044 64.6853 52.0425C65.0459 52.4998 65.4378 52.9312 65.8582 53.3335C66.2799 53.7142 66.7388 54.0508 67.2278 54.3384C67.6167 54.5778 68.0616 54.7093 68.5173 54.7199H69.2094C69.2513 54.821 69.2806 54.9269 69.2968 55.0353C69.3135 55.1617 69.3184 55.2894 69.3114 55.4167Z" fill="#243D81"/>
<path d="M53.4734 75.1995C53.4641 75.4242 53.4348 75.6476 53.386 75.867C52.6137 76.021 51.9726 76.1677 51.4554 76.3144C51.0377 76.412 50.65 76.6109 50.3262 76.8939C50.2007 77.1019 50.1328 77.34 50.1295 77.5834C50.0858 77.9599 50.0493 78.422 50.0202 78.9697C49.9911 79.5174 49.9692 80.1189 49.9546 80.7742C49.9546 81.4343 49.9546 82.0725 49.9546 82.696L49.8599 95.1656V97.3295C49.8599 98.173 49.8599 98.9946 49.8599 99.7794C49.8599 100.564 49.9109 101.246 49.9765 101.877C49.9707 102.258 50.061 102.634 50.2388 102.97C50.5658 103.27 50.9611 103.484 51.3898 103.594C51.8925 103.74 52.4972 103.894 53.2111 104.041C53.26 104.261 53.2892 104.484 53.2985 104.709C53.3046 104.814 53.3046 104.919 53.2985 105.024C53.2985 105.141 53.2767 105.273 53.233 105.42H51.9654C51.4068 105.42 50.7512 105.405 49.9983 105.376C49.2698 105.376 48.5413 105.332 47.8492 105.332C47.1571 105.332 46.4577 105.332 45.7219 105.376C44.9861 105.42 44.3305 105.42 43.7695 105.42H42.531C42.5019 105.273 42.48 105.141 42.4655 105.024C42.4594 104.919 42.4594 104.814 42.4655 104.709C42.4748 104.484 42.504 104.261 42.5529 104.041C43.2021 103.921 43.8442 103.764 44.4762 103.572C44.8957 103.461 45.2845 103.256 45.6127 102.97C45.7538 102.655 45.8211 102.311 45.8094 101.965C45.8531 101.386 45.8968 100.696 45.9405 99.8894C45.9842 99.0826 46.0133 98.2537 46.0279 97.3955C46.0425 96.5373 46.0279 95.7891 46.0279 95.195L46.1153 82.7253C46.1153 82.0725 46.1153 81.4123 46.1153 80.7595C46.1153 80.1067 46.0789 79.5125 46.0498 78.9771C46.0293 78.5276 45.9855 78.0796 45.9186 77.6347C45.9027 77.3973 45.8275 77.1677 45.7001 76.9672C45.3737 76.671 44.9774 76.464 44.549 76.3658C44.0463 76.2337 43.4344 76.0944 42.7277 75.9403C42.6789 75.7209 42.6496 75.4975 42.6403 75.2728C42.6341 75.1702 42.6341 75.0674 42.6403 74.9648C42.6403 74.8401 42.6403 74.708 42.7059 74.5613H43.9443C44.5053 74.5613 45.1683 74.5613 45.9186 74.6053C46.669 74.6494 47.3757 74.6493 48.1042 74.6493C48.8327 74.6493 49.4957 74.6494 50.2315 74.6053C50.9673 74.5613 51.6229 74.5613 52.1839 74.5613H53.4224C53.4224 74.708 53.4734 74.8401 53.488 74.9648C53.4867 75.0432 53.4819 75.1215 53.4734 75.1995ZM69.071 104.687C69.077 104.792 69.077 104.897 69.071 105.002C69.071 105.119 69.0491 105.251 69.0054 105.398H68.2769L67.3007 105.442L66.2371 105.493H65.2681C64.5551 105.512 63.8438 105.413 63.1627 105.2C62.7117 105.063 62.2962 104.828 61.9461 104.511C61.6207 104.183 61.135 103.625 60.489 102.838C59.8552 102.046 59.1486 101.151 58.3836 100.139C57.6187 99.1266 56.8173 98.063 55.9941 96.9481C55.1708 95.8331 54.3986 94.7842 53.6847 93.8013L51.8488 91.2414C51.3315 90.5078 50.9818 90.0091 50.807 89.7743L58.7406 80.6275C59.389 79.8939 59.9572 79.1604 60.4453 78.5516C60.804 78.1728 61.0556 77.7043 61.1738 77.1946C61.1733 76.9883 61.1093 76.7872 60.9906 76.6191C60.8718 76.4509 60.7043 76.324 60.5109 76.2557C60.0336 76.039 59.5241 75.9027 59.0029 75.8523C58.9466 75.6343 58.9172 75.4101 58.9154 75.1848C58.9138 74.9376 58.9431 74.6911 59.0029 74.4513H60.5546H61.3268C61.6668 74.4513 62.0384 74.4513 62.4415 74.4513H63.6581H64.7654C65.358 74.4513 65.9262 74.4366 66.4702 74.4073C67.0166 74.4073 67.4537 74.3633 67.7742 74.3633H68.7942C68.8322 74.4481 68.8615 74.5366 68.8816 74.6273C68.9143 74.7593 68.9314 74.8948 68.9326 75.0308C68.9309 75.174 68.9138 75.3167 68.8816 75.4562C68.8631 75.5546 68.8338 75.6505 68.7942 75.7423C68.2041 75.867 67.716 75.977 67.3371 76.0797C66.8987 76.2101 66.485 76.4134 66.1132 76.6812C65.57 77.0832 65.0607 77.5297 64.5906 78.0162C63.9932 78.6176 63.1991 79.4832 62.1938 80.5174L54.7993 88.7548C54.9814 88.9895 55.302 89.4369 55.7755 90.0897C56.249 90.7426 56.8173 91.5568 57.4802 92.415C58.1432 93.2732 58.8644 94.2634 59.6294 95.2903C60.3943 96.3172 61.1593 97.3148 61.9169 98.2757C62.6746 99.2366 63.374 100.132 64.0442 100.931C64.7145 101.731 65.2608 102.361 65.7052 102.809C66.0721 103.175 66.4984 103.475 66.9656 103.696C67.4553 103.938 67.994 104.061 68.5392 104.056H68.9836C69.0303 104.263 69.0596 104.474 69.071 104.687Z" fill="#243D81"/>
<path d="M72.4003 64.7763H39.1143V65.9389H72.4003V64.7763Z" fill="#243D81"/>
<path d="M55.9066 130L0 97.4982V32.5018L55.9066 0L111.821 32.5018V97.4982L55.9066 130ZM4.97579 94.6228L55.9066 124.227L106.845 94.6228V35.3919L55.9066 5.78006L4.97579 35.3919V94.6228Z" fill="#B8824F"/>
</svg>
